<svg width="1278" height="557" viewBox="0 0 1278 557" fill="none" xmlns="http://www.w3.org/2000/svg">
<path d="M1239 323V361.93H1277.93V323H1239ZM1272.51 356.51H1244.43V328.42H1272.52L1272.51 356.51Z" fill="#FF9D00"/>
<path d="M0 526V557H31V526H0ZM26.6841 552.684H4.32391V530.316H26.692L26.6841 552.684Z" fill="#FF9D00"/>
<path d="M120 31H57L88.5 0L120 31Z" fill="#EC008B"/>
<path d="M1165.74 531C1164.01 531 1162.32 531.513 1160.88 532.473C1159.45 533.433 1158.33 534.798 1157.67 536.395C1157 537.992 1156.83 539.75 1157.17 541.445C1157.51 543.14 1158.34 544.698 1159.56 545.92C1160.78 547.142 1162.34 547.975 1164.03 548.312C1165.73 548.649 1167.49 548.476 1169.08 547.815C1170.68 547.153 1172.05 546.033 1173.01 544.596C1173.97 543.158 1174.48 541.469 1174.48 539.74C1174.48 538.592 1174.25 537.456 1173.81 536.395C1173.38 535.335 1172.73 534.371 1171.92 533.56C1171.11 532.748 1170.15 532.105 1169.08 531.665C1168.02 531.226 1166.89 531 1165.74 531ZM1165.74 543.9C1164.91 543.9 1164.11 543.655 1163.42 543.197C1162.74 542.738 1162.2 542.086 1161.89 541.323C1161.57 540.561 1161.49 539.722 1161.65 538.913C1161.81 538.104 1162.21 537.361 1162.79 536.778C1163.38 536.195 1164.12 535.799 1164.93 535.639C1165.74 535.479 1166.58 535.563 1167.34 535.88C1168.1 536.197 1168.76 536.733 1169.21 537.421C1169.67 538.108 1169.91 538.915 1169.91 539.74C1169.9 540.839 1169.46 541.889 1168.67 542.663C1167.89 543.436 1166.84 543.87 1165.74 543.87V543.9Z" fill="#FFC200"/>
</svg>
