<svg width="1355" height="761" viewBox="0 0 1355 761" fill="none" xmlns="http://www.w3.org/2000/svg">
<g filter="url(#filter0_b_108_55)">
<path fill-rule="evenodd" clip-rule="evenodd" d="M715.872 755.476C401.071 755.476 145.951 535.89 145.951 265.126C145.951 179.562 170.783 143.81 223.91 142.173C246.905 141.462 275.245 146.852 314.23 158.486C329.7 163.097 346.136 168.442 369.894 176.475C376.279 178.631 398.833 186.296 400.031 186.702C410.532 190.273 421.046 193.801 431.575 197.286C544.31 234.522 627.376 252.601 715.872 252.601C751.365 252.601 781.807 252.104 837.093 250.829C932.222 248.644 965.189 248.357 1007.23 250.293C1062.09 252.816 1104.1 259.561 1137.98 272.261C1214.69 301.014 1251.31 362.058 1251.31 473.226C1251.31 601.546 1202.38 676.482 1102.11 715.587C1020.67 747.354 922.283 755.476 715.872 755.476V755.476Z" stroke="url(#paint0_linear_108_55)" stroke-opacity="0.5" stroke-width="0.5"/>
<path fill-rule="evenodd" clip-rule="evenodd" d="M757.959 708.435C443.158 708.435 188.038 488.849 188.038 218.091C188.038 132.521 212.869 96.7749 265.991 95.1324C288.986 94.4268 317.327 99.8173 356.317 111.445C371.787 116.062 388.223 121.407 411.981 129.434C418.366 131.595 440.92 139.255 442.113 139.667C452.615 143.238 463.131 146.765 473.662 150.25C586.397 187.487 669.463 205.566 757.959 205.566C793.452 205.566 823.894 205.064 879.174 203.794C974.309 201.609 1007.27 201.321 1049.31 203.257C1104.17 205.78 1146.18 212.526 1180.06 225.226C1256.77 253.978 1293.39 315.023 1293.39 426.19C1293.39 554.505 1244.46 629.441 1144.19 668.551C1062.75 700.318 964.365 708.435 757.959 708.435V708.435Z" stroke="url(#paint1_linear_108_55)" stroke-opacity="0.5" stroke-width="0.5"/>
<path fill-rule="evenodd" clip-rule="evenodd" d="M608.917 71.5555C966.325 71.5555 1255.98 318.037 1255.98 621.962C1255.98 718.065 1227.73 758.264 1167.31 760.11C1141.19 760.906 1109 754.861 1064.73 741.799C1047.17 736.618 1028.51 730.623 1001.54 721.609C994.298 719.188 968.698 710.586 967.342 710.128C953.33 705.432 942.369 701.792 931.538 698.253C803.6 656.472 709.335 636.192 608.923 636.192C568.633 636.192 534.089 636.756 471.334 638.179C363.357 640.634 325.937 640.956 278.217 638.783C215.92 635.949 168.223 628.38 129.747 614.116C42.601 581.825 1 513.262 1 388.452C1 244.394 56.5791 160.247 170.46 116.333C262.923 80.6713 374.612 71.5555 608.917 71.5555V71.5555Z" stroke="url(#paint2_linear_108_55)" stroke-opacity="0.5" stroke-width="0.5"/>
<path fill-rule="evenodd" clip-rule="evenodd" d="M727.562 0.999997C370.154 0.999997 80.4954 247.482 80.4954 551.407C80.4954 647.509 108.745 687.709 169.167 689.554C195.292 690.35 227.475 684.305 271.748 671.244C289.308 666.062 307.964 660.068 334.938 651.054C342.181 648.632 367.781 640.03 369.137 639.573C383.149 634.877 394.11 631.236 404.941 627.697C532.88 585.917 627.144 565.636 727.556 565.636C767.846 565.636 802.39 566.201 865.145 567.623C973.122 570.079 1010.54 570.4 1058.26 568.227C1120.56 565.394 1168.26 557.824 1206.73 543.561C1293.88 511.269 1335.48 442.706 1335.48 317.896C1335.48 173.839 1279.9 89.6911 1166.02 45.7774C1073.56 10.1158 961.867 0.999997 727.562 0.999997V0.999997Z" stroke="url(#paint3_linear_108_55)" stroke-opacity="0.5" stroke-width="0.5"/>
<path fill-rule="evenodd" clip-rule="evenodd" d="M707.109 661.4C1064.57 661.4 1354.18 473.638 1354.18 242.379C1354.18 169.385 1326.03 138.866 1265.52 137.46C1239.34 136.85 1207.13 141.468 1162.84 151.419C1145.27 155.37 1126.61 159.942 1099.64 166.806C1092.39 168.651 1066.79 175.204 1065.43 175.554C1051.42 179.133 1040.46 181.904 1029.63 184.597C901.717 216.426 807.487 231.875 707.109 231.875C666.824 231.875 632.286 231.446 569.537 230.356C365.159 226.817 296.975 229.182 227.831 248.701C140.691 273.311 99.1913 325.42 99.1913 420.292C99.1913 529.817 154.674 593.819 268.539 627.274C361.052 654.452 472.764 661.4 707.109 661.4V661.4Z" stroke="url(#paint4_linear_108_55)" stroke-opacity="0.5" stroke-width="0.5"/>
<path d="M358.877 263.935L359.978 267.248L359.589 268.214C288.512 443.4 373.002 642.999 548.299 714.023C589.239 730.613 633.006 739.131 677.186 739.107C866.45 739.135 1019.9 585.827 1019.93 396.681C1019.96 207.536 866.552 54.1763 677.288 54.1538C540.14 54.1312 416.185 135.829 362.205 261.83L361.707 262.998L358.877 263.935ZM948.782 575.192L927.736 554.172V511.698C927.754 510.367 927.464 509.049 926.888 507.849L881.666 417.6V373.612C881.665 372.184 881.313 370.777 880.639 369.517C879.964 368.256 878.99 367.182 877.801 366.387L843.245 343.358C842.233 342.684 841.091 342.229 839.892 342.022C838.693 341.816 837.464 341.864 836.285 342.162L793.045 352.959L719.64 321.48L709.437 250.055L738.365 221.156H799.226L800.068 222.42L819.645 251.822C820.979 253.82 823.081 255.175 825.454 255.564L894.559 267.079C895.949 267.305 897.384 267.192 898.728 266.74L964.658 244.784L965.771 246.917C992.224 297.65 1004.76 354.474 1002.11 411.615C999.463 468.757 981.72 524.179 950.686 572.252L948.788 575.187L948.782 575.192ZM905.288 165.152L882.666 180.222L881.519 179.997L828.974 169.464L795.085 158.192C793.525 157.663 791.845 157.598 790.249 158.006L746.631 168.9L723.991 161.359L740.139 129.078H780.836C782.192 129.078 783.519 128.768 784.723 128.169L825.86 107.612L827.143 108.278C854.826 122.719 880.292 141.053 902.763 162.719L905.288 165.152V165.152ZM552.604 97.7006L580.244 116.118C581.272 116.801 582.43 117.259 583.645 117.456L642.721 127.306L635.778 148.066L634.444 148.512L605.358 158.215C603.393 158.868 601.726 160.201 600.657 161.974L567.215 217.662L513.483 249.892L512.427 250.259L434.106 261.435C432.034 261.728 430.137 262.758 428.764 264.337C427.391 265.915 426.634 267.935 426.631 270.026V304.558C426.631 306.861 427.547 309.074 429.174 310.699L449.667 331.172V357.39L396.557 322L378.527 267.943L378.962 266.949C412.307 190.792 473.44 130.185 549.926 97.4579L551.333 96.8596L552.604 97.7063V97.7006ZM517.687 480.196H517.693L464.283 469.511L444.011 429.114V400.226L490.522 353.744L492.273 357.243L508.155 389.005C509.63 391.951 512.641 393.808 515.941 393.808H591.645L592.47 395.18L623.67 447.143C625.24 449.756 628.065 451.359 631.116 451.359H666.581L657.677 495.939L657.072 496.543L613.466 540.118C611.831 541.745 610.911 543.954 610.906 546.259V576.445L609.776 577.292L568.317 608.37C567.237 609.18 566.36 610.229 565.756 611.435C565.152 612.64 564.837 613.97 564.836 615.319V660.802L545.553 654.418L524.84 602.647L524.636 601.603V488.714C524.636 484.582 521.732 481.02 517.687 480.191V480.196ZM481.934 656.625C372.386 574.498 326.061 432.591 366.063 301.702L368.646 293.247L371.448 301.634L381.019 330.319C381.624 332.154 382.827 333.729 384.432 334.801L444.706 374.956L442.276 377.388L429.18 390.484C428.372 391.291 427.731 392.249 427.294 393.304C426.856 394.358 426.631 395.489 426.631 396.63V431.163C426.631 432.512 426.942 433.839 427.541 435.041L450.576 481.083C451.78 483.481 454.023 485.192 456.667 485.711L507.308 495.82V603.815C507.308 604.916 507.517 606.011 507.929 607.033L530.959 664.578C531.914 666.949 533.863 668.789 536.292 669.596L570.859 681.11C571.723 681.404 572.627 681.551 573.531 681.562C578.334 681.562 582.221 677.667 582.221 672.87V619.665L583.351 618.818L624.817 587.74C625.895 586.93 626.771 585.881 627.374 584.675C627.977 583.469 628.291 582.14 628.291 580.792V549.86L629.122 549.03L671.813 506.364C673.022 505.15 673.847 503.604 674.186 501.922L685.701 444.371C685.951 443.112 685.919 441.814 685.608 440.569C685.296 439.324 684.712 438.163 683.898 437.17C683.084 436.177 682.06 435.377 680.9 434.826C679.739 434.275 678.471 433.988 677.186 433.985H636.037L635.213 432.614L604.013 380.645C603.241 379.361 602.15 378.299 600.845 377.561C599.54 376.823 598.066 376.435 596.567 376.435H521.303L520.529 374.871L500.743 335.196C500.124 333.96 499.218 332.889 498.102 332.072C496.986 331.256 495.691 330.717 494.324 330.5C492.967 330.267 491.574 330.368 490.264 330.794C488.955 331.219 487.769 331.958 486.81 332.944L467.046 352.621V327.571C467.046 325.268 466.131 323.055 464.498 321.429L444.011 300.957V277.55L446.44 277.211L517.167 267.113C518.314 266.944 519.421 266.549 520.416 265.956L578.001 231.429C579.221 230.695 580.244 229.679 580.973 228.454L613.872 173.664L614.867 173.331L645.388 163.154C647.982 162.301 650.016 160.269 650.869 157.667L662.383 123.146C662.776 121.957 662.907 120.697 662.767 119.452C662.627 118.208 662.22 117.008 661.573 115.935C660.926 114.863 660.054 113.943 659.018 113.238C657.982 112.533 656.806 112.06 655.569 111.851L588.916 100.743L587.809 100.308L571.255 89.2735L576.792 87.4673C649.904 63.6857 729.096 66.6283 800.238 95.7702L806.001 98.1296L778.79 111.705H734.754C733.132 111.696 731.54 112.142 730.158 112.991C728.776 113.839 727.659 115.058 726.935 116.508L703.9 162.544C703.345 163.657 703.036 164.877 702.993 166.12C702.95 167.363 703.175 168.601 703.652 169.749C704.13 170.898 704.848 171.931 705.759 172.779C706.67 173.626 707.753 174.269 708.934 174.663L743.5 186.177C745.06 186.708 746.732 186.776 748.337 186.369L791.955 175.475L792.735 175.735L824.171 186.194C824.471 186.307 824.781 186.386 825.149 186.454L882.745 197.969C885.005 198.42 887.349 197.963 889.265 196.682L917.515 177.852L919.148 179.669C932.161 194.155 943.855 209.771 954.093 226.332L955.969 229.363L895.254 249.587L832.002 239.054L831.324 238.038L811.052 207.649C810.264 206.467 809.198 205.496 807.946 204.822C806.695 204.148 805.298 203.791 803.876 203.782H734.777C732.472 203.782 730.257 204.697 728.63 206.328L694.074 240.861C693.119 241.815 692.4 242.979 691.974 244.26C691.547 245.54 691.425 246.902 691.616 248.238L703.131 328.801C703.572 331.804 705.549 334.367 708.357 335.552L788.989 370.09C790.723 370.841 792.661 370.993 794.509 370.525L836.85 359.947L864.286 378.258V419.688C864.275 421.031 864.569 422.358 865.139 423.537L910.356 513.787V557.774C910.356 560.077 911.272 562.289 912.904 563.92L938.725 589.738L937.256 591.697C829.471 735.286 625.608 764.36 481.934 656.63V656.625Z" stroke="url(#paint5_linear_108_55)" stroke-opacity="0.5"/>
</g>
<defs>
<filter id="filter0_b_108_55" x="-3.25" y="-3.25" width="1361.68" height="767.679" filterUnits="userSpaceOnUse" color-interpolation-filters="sRGB">
<feFlood flood-opacity="0" result="BackgroundImageFix"/>
<feGaussianBlur in="BackgroundImageFix" stdDeviation="2"/>
<feComposite in2="SourceAlpha" operator="in" result="effect1_backgroundBlur_108_55"/>
<feBlend mode="normal" in="SourceGraphic" in2="effect1_backgroundBlur_108_55" result="shape"/>
</filter>
<linearGradient id="paint0_linear_108_55" x1="964.676" y1="489.147" x2="744.434" y2="214.27" gradientUnits="userSpaceOnUse">
<stop stop-color="#FF0070"/>
<stop offset="0.39935" stop-color="#FF036E"/>
<stop offset="1" stop-color="#00FFF4"/>
</linearGradient>
<linearGradient id="paint1_linear_108_55" x1="1006.76" y1="442.106" x2="786.521" y2="167.23" gradientUnits="userSpaceOnUse">
<stop stop-color="#FF0070"/>
<stop offset="0.39935" stop-color="#FF036E"/>
<stop offset="1" stop-color="#00FFF4"/>
</linearGradient>
<linearGradient id="paint2_linear_108_55" x1="326.43" y1="371.582" x2="576.358" y2="679.914" gradientUnits="userSpaceOnUse">
<stop stop-color="#FF0070"/>
<stop offset="0.39935" stop-color="#FF036E"/>
<stop offset="1" stop-color="#00FFF4"/>
</linearGradient>
<linearGradient id="paint3_linear_108_55" x1="1010.05" y1="301.027" x2="760.121" y2="609.359" gradientUnits="userSpaceOnUse">
<stop stop-color="#FF0070"/>
<stop offset="0.39935" stop-color="#FF036E"/>
<stop offset="1" stop-color="#00FFF4"/>
</linearGradient>
<linearGradient id="paint4_linear_108_55" x1="424.621" y1="418.964" x2="689.232" y2="169.931" gradientUnits="userSpaceOnUse">
<stop stop-color="#FF0070"/>
<stop offset="0.39935" stop-color="#FF036E"/>
<stop offset="1" stop-color="#00FFF4"/>
</linearGradient>
<linearGradient id="paint5_linear_108_55" x1="512.213" y1="542.101" x2="747.93" y2="14.552" gradientUnits="userSpaceOnUse">
<stop stop-color="#FF0070"/>
<stop offset="0.39935" stop-color="#FF036E"/>
<stop offset="1" stop-color="#00FFF4"/>
</linearGradient>
</defs>
</svg>
