<svg width="31" height="31" viewBox="0 0 31 31" fill="none" xmlns="http://www.w3.org/2000/svg">
<path d="M15.5 0C12.4344 0 9.43771 0.909059 6.88875 2.61222C4.33979 4.31538 2.35306 6.73615 1.1799 9.56841C0.00674117 12.4007 -0.300244 15.5172 0.297826 18.5239C0.895897 21.5306 2.37216 24.2924 4.53987 26.4601C6.70758 28.6279 9.46944 30.1041 12.4761 30.7022C15.4828 31.3002 18.5994 30.9933 21.4316 29.8201C24.2639 28.647 26.6846 26.6603 28.3878 24.1113C30.0909 21.5624 31 18.5656 31 15.5C31 13.4645 30.5991 11.449 29.8202 9.56841C29.0412 7.68786 27.8995 5.97915 26.4602 4.53984C25.0209 3.10054 23.3122 1.95881 21.4316 1.17987C19.5511 0.400919 17.5355 0 15.5 0ZM15.5 22.8776C14.0366 22.8776 12.6061 22.4434 11.3896 21.63C10.1731 20.8166 9.2252 19.6606 8.66599 18.3082C8.10678 16.9559 7.96138 15.468 8.24817 14.033C8.53496 12.5979 9.24105 11.2803 10.2771 10.2467C11.3131 9.21317 12.6325 8.51024 14.0682 8.2269C15.5039 7.94355 16.9914 8.09254 18.3424 8.65499C19.6934 9.21745 20.8472 10.1681 21.6576 11.3866C22.4681 12.605 22.8988 14.0366 22.8953 15.5C22.8766 17.449 22.0892 19.3119 20.7043 20.6835C19.3195 22.0551 17.4492 22.8245 15.5 22.8244V22.8776Z" fill="#FFC200"/>
</svg>
